<svg xmlns="http://www.w3.org/2000/svg" xmlns:xlink="http://www.w3.org/1999/xlink" viewBox="0 0 466.66 235.29"><defs><style>.cls-1{fill:#d8d9ea;}.cls-11,.cls-13,.cls-16,.cls-2,.cls-4{fill:none;}.cls-2,.cls-4{stroke:#bebfdd;}.cls-11,.cls-2,.cls-4{stroke-linecap:round;stroke-linejoin:round;}.cls-2{stroke-width:0.46px;}.cls-21,.cls-3,.cls-8{fill:#bebfdd;}.cls-3{opacity:0.2;}.cls-11,.cls-4{stroke-width:0.44px;}.cls-5{fill:#a5a7ca;}.cls-6{fill:#fff;}.cls-7{fill:#3e2949;}.cls-9{fill:#e46341;}.cls-10{fill:#f0f0f7;}.cls-11{stroke:#6d567a;}.cls-12{fill:#1d1223;}.cls-13{stroke:#e46341;}.cls-13,.cls-16{stroke-miterlimit:10;stroke-width:7.03px;}.cls-14{fill:#6d567a;}.cls-15{clip-path:url(#clip-path);}.cls-16{stroke:#80bdc1;}.cls-17{fill:#897099;}.cls-18{fill:#e23b4b;}.cls-19{fill:#f3f0f5;}.cls-20{fill:#4b3158;}.cls-21{opacity:0.4;}</style><clipPath id="clip-path"><rect class="cls-1" x="239.84" y="59.32" width="217.91" height="125.82"/></clipPath></defs><g id="Layer_2" data-name="Layer 2"><g id="OBJECTS"><line class="cls-2" x1="84.46" y1="232.03" x2="79.26" y2="232.03"/><line class="cls-2" x1="74.05" y1="232.03" x2="72.23" y2="232.03"/><path class="cls-3" d="M129,231.06c0,1.2,6.82,2.18,15.24,2.18s15.23-1,15.23-2.18-6.82-2.19-15.23-2.19S129,229.85,129,231.06Z"/><ellipse class="cls-3" cx="304.85" cy="232.64" rx="15.24" ry="2.18"/><ellipse class="cls-3" cx="426.58" cy="233.11" rx="15.24" ry="2.18"/><line class="cls-4" x1="463.14" y1="217.77" x2="91.75" y2="217.77"/><path class="cls-3" d="M0,218.27s-1.19-35.4,53.84-35.4S80.76,134,125.41,121.94c55.72-15,72.61,61,72.61,96.33Z"/><path class="cls-3" d="M110.51,217.77s-2.08-69.29,93.32-69.29,33-100.22,124.06-119.22c99-20.66,125.87,119.37,125.87,188.51Z"/><polygon class="cls-5" points="211.57 172.14 129 172.14 170.29 194.99 211.57 172.14"/><polygon class="cls-5" points="211.57 172.14 129 172.14 170.29 143.28 211.57 172.14"/><rect class="cls-6" x="141.59" y="133.84" width="60.97" height="81.62"/><path class="cls-7" d="M154,189.71a2.76,2.76,0,1,1-4.72,1.95h-2.12a4.89,4.89,0,1,0,8.34-3.45Z"/><path class="cls-8" d="M151.72,188.91l-.22-2.11a4.9,4.9,0,0,0-4.38,4.86h2.12A2.77,2.77,0,0,1,151.72,188.91Z"/><path class="cls-5" d="M152,188.9a2.75,2.75,0,0,1,2,.81l1.5-1.5a4.87,4.87,0,0,0-3.45-1.43l-.51,0,.22,2.11Z"/><path class="cls-7" d="M165.39,194.45a2.77,2.77,0,0,1-2.77-2.77H160.5a4.89,4.89,0,0,0,8.34,3.46l-1.5-1.5A2.75,2.75,0,0,1,165.39,194.45Z"/><path class="cls-8" d="M168.84,188.23a4.83,4.83,0,0,0-3.45-1.43h0v2.12h0a2.76,2.76,0,0,1,2,4.72l1.5,1.5a4.89,4.89,0,0,0,0-6.91Z"/><path class="cls-5" d="M164.88,186.82a4.88,4.88,0,0,0-1.93.63,4.72,4.72,0,0,0-1.61,1.5,4.84,4.84,0,0,0-.84,2.73h2.12a2.77,2.77,0,0,1,2.48-2.75h.29V186.8Z"/><path class="cls-7" d="M178.76,186.8l-.5,0a4.93,4.93,0,0,0-1.94.63,4.78,4.78,0,0,0-1.6,1.5,4.84,4.84,0,0,0-.84,2.73h4.88Z"/><path class="cls-7" d="M182.22,188.23l-3.46,3.45-3.45,3.46a4.89,4.89,0,0,0,6.91-6.91Z"/><path class="cls-9" d="M182.22,188.23a4.85,4.85,0,0,0-3.46-1.43v4.88Z"/><path class="cls-10" d="M173.88,191.68a4.91,4.91,0,0,0,1.43,3.46l3.45-3.46Z"/><path class="cls-8" d="M195.6,188.23a4.87,4.87,0,0,0-3.46-1.43v4.88h-4.88a4.89,4.89,0,1,0,8.34-3.45Z"/><path class="cls-9" d="M188.69,188.23a4.52,4.52,0,0,0-.59.72,4.84,4.84,0,0,0-.84,2.73h4.88Z"/><path class="cls-5" d="M192.14,186.8l-.5,0a4.93,4.93,0,0,0-1.94.63,5.14,5.14,0,0,0-1,.78l3.45,3.45Z"/><rect class="cls-5" x="147.12" y="172.03" width="15.49" height="1.81"/><rect class="cls-9" x="162.61" y="172.03" width="7.59" height="1.81"/><rect class="cls-5" x="147.12" y="175.98" width="11.97" height="1.81"/><rect class="cls-9" x="159.09" y="175.98" width="11.11" height="1.81"/><rect class="cls-5" x="147.12" y="179.93" width="6.67" height="1.81"/><rect class="cls-9" x="153.79" y="179.93" width="16.41" height="1.81"/><rect class="cls-5" x="173.95" y="172.03" width="15.49" height="1.81"/><rect class="cls-9" x="189.44" y="172.03" width="7.59" height="1.81"/><rect class="cls-5" x="173.95" y="175.98" width="11.97" height="1.81"/><rect class="cls-9" x="185.92" y="175.98" width="11.11" height="1.81"/><rect class="cls-5" x="173.95" y="179.93" width="6.67" height="1.81"/><rect class="cls-9" x="180.62" y="179.93" width="16.41" height="1.81"/><rect class="cls-11" x="147.12" y="142.29" width="12.15" height="15.74"/><path class="cls-12" d="M154.74,151.54a1.81,1.81,0,0,1,3-1.39l0,0c1.25,1.25-1,2.61.51,3.8C157.13,155.14,154.72,154.12,154.74,151.54Z"/><path class="cls-12" d="M154.91,154.67h-3.27a3.35,3.35,0,0,0-3.36,3.36h10A3.36,3.36,0,0,0,154.91,154.67Z"/><path class="cls-9" d="M153.27,156.11h0l1.43-1.43v-4.36h-2.85v4.36Z"/><path class="cls-12" d="M153.27,143.86c-3.15,0-4.16,2.13-4.16,3.53a9.55,9.55,0,0,0,.8,3.17h6.73a9.55,9.55,0,0,0,.8-3.17C157.44,146,156.42,143.86,153.27,143.86Z"/><path class="cls-12" d="M151.85,152.61v1.2a4,4,0,0,0,2.85-1.2Z"/><path class="cls-9" d="M149.91,149.84a3.37,3.37,0,1,0,3.36-3.36A3.37,3.37,0,0,0,149.91,149.84Z"/><path class="cls-9" d="M154.57,151.56h-3a1.66,1.66,0,0,1-1.65-1.65v-1.72a3.37,3.37,0,0,1,3.36-3.36h0a3.37,3.37,0,0,1,3.37,3.36v1.29A2.08,2.08,0,0,1,154.57,151.56Z"/><path class="cls-9" d="M148.71,149.84a1.13,1.13,0,1,0,1.13-1.12A1.12,1.12,0,0,0,148.71,149.84Z"/><path class="cls-9" d="M155.59,149.84a1.13,1.13,0,1,0,1.12-1.12A1.12,1.12,0,0,0,155.59,149.84Z"/><rect class="cls-6" x="151.62" y="154.09" width="1" height="2.26" transform="translate(-65.2 153.03) rotate(-45)"/><rect class="cls-6" x="153.3" y="154.72" width="2.26" height="1" transform="translate(-64.53 154.66) rotate(-45)"/><rect class="cls-10" x="153.05" y="155.76" width="0.45" height="0.44" transform="translate(-65.4 154.03) rotate(-44.99)"/><path class="cls-12" d="M149.84,148.72l3.43-3.89,3.37,3.82s.8-4.46-3.37-4.46S149.84,148.72,149.84,148.72Z"/><line class="cls-11" x1="162.61" y1="142.29" x2="197.03" y2="142.29"/><line class="cls-11" x1="162.61" y1="145.41" x2="197.03" y2="145.41"/><line class="cls-11" x1="162.61" y1="148.52" x2="197.03" y2="148.52"/><line class="cls-11" x1="162.61" y1="151.64" x2="197.03" y2="151.64"/><line class="cls-11" x1="162.61" y1="154.76" x2="197.03" y2="154.76"/><line class="cls-11" x1="147.12" y1="160.99" x2="197.03" y2="160.99"/><line class="cls-11" x1="147.12" y1="164.1" x2="196.87" y2="164.1"/><line class="cls-11" x1="147.12" y1="167.22" x2="196.87" y2="167.22"/><polygon class="cls-8" points="129 172.14 129 217.85 170.29 194.99 129 172.14"/><polygon class="cls-8" points="170.29 194.99 211.57 217.85 211.57 172.14 170.29 194.99"/><polygon class="cls-5" points="129 217.85 211.57 217.85 170.29 194.99 129 217.85"/><line class="cls-13" x1="168.04" y1="140.45" x2="191.84" y2="164.25"/><line class="cls-13" x1="191.84" y1="140.45" x2="168.04" y2="164.25"/><rect class="cls-14" x="319.91" y="169.76" width="57.78" height="42.91"/><rect class="cls-7" x="233.66" y="53.24" width="230.28" height="137.97" rx="3.4"/><rect class="cls-7" x="290.16" y="212.67" width="117.26" height="5.1" rx="2.55"/><rect class="cls-1" x="239.84" y="59.32" width="217.91" height="125.82"/><g class="cls-15"><rect class="cls-6" x="227.57" y="71.04" width="74.28" height="99.45"/><path class="cls-7" d="M242.65,139.1a3.37,3.37,0,1,1-5.75,2.39h-2.59a6,6,0,1,0,10.16-4.21Z"/><path class="cls-8" d="M239.92,138.13l-.27-2.56a6,6,0,0,0-5.34,5.92h2.59A3.37,3.37,0,0,1,239.92,138.13Z"/><path class="cls-5" d="M240.27,138.12a3.35,3.35,0,0,1,2.38,1l1.82-1.82a5.9,5.9,0,0,0-4.2-1.75c-.21,0-.42,0-.62,0l.27,2.56Z"/><path class="cls-7" d="M256.57,144.88a3.37,3.37,0,0,1-3.37-3.37h-2.59a6,6,0,0,0,10.16,4.21L259,143.89A3.36,3.36,0,0,1,256.57,144.88Z"/><path class="cls-8" d="M260.77,137.3a5.89,5.89,0,0,0-4.2-1.74h0v2.58h0a3.37,3.37,0,0,1,2.38,5.75l1.82,1.83a5.94,5.94,0,0,0,0-8.42Z"/><path class="cls-5" d="M256,135.59a6,6,0,0,0-2.36.76,6,6,0,0,0-3,5.16h2.59a3.36,3.36,0,0,1,3-3.35,2,2,0,0,1,.35,0v-2.58C256.36,135.56,256.15,135.57,256,135.59Z"/><path class="cls-7" d="M272.87,135.56c-.21,0-.42,0-.62,0a6,6,0,0,0-2.36.76,6,6,0,0,0-3,5.16h6Z"/><path class="cls-7" d="M277.08,137.3l-4.21,4.21-4.21,4.21a6,6,0,0,0,8.42-8.42Z"/><path class="cls-9" d="M277.08,137.3a5.93,5.93,0,0,0-4.21-1.74v5.95Z"/><path class="cls-10" d="M266.91,141.51a5.94,5.94,0,0,0,1.75,4.21l4.21-4.21Z"/><path class="cls-8" d="M293.38,137.3a5.93,5.93,0,0,0-4.21-1.74v5.95h-6a6,6,0,1,0,10.17-4.21Z"/><path class="cls-9" d="M285,137.3a5.53,5.53,0,0,0-.72.88,5.86,5.86,0,0,0-1,3.33h6Z"/><path class="cls-5" d="M289.17,135.56c-.21,0-.42,0-.62,0a6,6,0,0,0-2.36.76,6.31,6.31,0,0,0-1.23,1l4.21,4.21Z"/><rect class="cls-5" x="234.31" y="117.56" width="18.87" height="2.2"/><rect class="cls-9" x="253.19" y="117.56" width="9.25" height="2.2"/><rect class="cls-5" x="234.31" y="122.38" width="14.59" height="2.2"/><rect class="cls-9" x="248.9" y="122.38" width="13.53" height="2.2"/><rect class="cls-5" x="234.31" y="127.19" width="8.12" height="2.2"/><rect class="cls-9" x="242.44" y="127.19" width="20" height="2.2"/><rect class="cls-5" x="267" y="117.56" width="18.87" height="2.2"/><rect class="cls-9" x="285.87" y="117.56" width="9.25" height="2.2"/><rect class="cls-5" x="267" y="122.38" width="14.59" height="2.2"/><rect class="cls-9" x="281.59" y="122.38" width="13.53" height="2.2"/><rect class="cls-5" x="267" y="127.19" width="8.12" height="2.2"/><rect class="cls-9" x="275.12" y="127.19" width="20" height="2.2"/><rect class="cls-11" x="234.31" y="81.33" width="14.8" height="19.18"/><path class="cls-12" d="M241.81,95.79c3.55,0,4.7-2.4,4.7-4a10.64,10.64,0,0,0-.91-3.58H238a10.64,10.64,0,0,0-.91,3.58C237.11,93.39,238.26,95.79,241.81,95.79Z"/><path class="cls-12" d="M240.08,94.71h3.46a3.57,3.57,0,0,1,3.57,3.57v2.23a0,0,0,0,1,0,0h-10.6a0,0,0,0,1,0,0V98.28A3.57,3.57,0,0,1,240.08,94.71Z"/><path class="cls-9" d="M241.81,96.24h0l1.51-1.51V90.09h-3v4.64Z"/><path class="cls-12" d="M241.81,83.24c-3.34,0-4.42,2.27-4.42,3.75a10.05,10.05,0,0,0,.85,3.36h7.14a10.05,10.05,0,0,0,.85-3.36C246.23,85.51,245.15,83.24,241.81,83.24Z"/><path class="cls-12" d="M240.3,92.53V93.8a4.23,4.23,0,0,0,3-1.27Z"/><path class="cls-9" d="M238.24,89.59A3.57,3.57,0,1,0,241.81,86,3.57,3.57,0,0,0,238.24,89.59Z"/><path class="cls-9" d="M243.18,91.41H240a1.76,1.76,0,0,1-1.75-1.75V87.84a3.59,3.59,0,0,1,3.57-3.57h0a3.58,3.58,0,0,1,3.57,3.57v1.37A2.21,2.21,0,0,1,243.18,91.41Z"/><path class="cls-9" d="M237,89.59a1.2,1.2,0,1,0,1.19-1.19A1.19,1.19,0,0,0,237,89.59Z"/><path class="cls-9" d="M244.26,89.59a1.2,1.2,0,1,0,2.39,0,1.2,1.2,0,0,0-2.39,0Z"/><path class="cls-12" d="M241.81,82.85c-4.88,0-4.41,4.29-4.41,4.29l8.82.12S246.69,82.85,241.81,82.85Z"/><line class="cls-11" x1="253.19" y1="81.33" x2="295.12" y2="81.33"/><line class="cls-11" x1="253.19" y1="85.13" x2="295.12" y2="85.13"/><line class="cls-11" x1="253.19" y1="88.93" x2="295.12" y2="88.93"/><line class="cls-11" x1="253.19" y1="92.72" x2="295.12" y2="92.72"/><line class="cls-11" x1="253.19" y1="96.52" x2="295.12" y2="96.52"/><line class="cls-11" x1="234.31" y1="104.11" x2="295.12" y2="104.11"/><line class="cls-11" x1="234.31" y1="107.91" x2="294.92" y2="107.91"/><line class="cls-11" x1="234.31" y1="111.7" x2="294.92" y2="111.7"/><line class="cls-11" x1="234.31" y1="153.41" x2="295.12" y2="153.41"/><line class="cls-11" x1="234.31" y1="157.21" x2="294.92" y2="157.21"/><line class="cls-11" x1="234.31" y1="161" x2="294.92" y2="161"/><rect class="cls-6" x="309.98" y="71.04" width="74.28" height="99.45"/><path class="cls-7" d="M325.05,139.1a3.37,3.37,0,1,1-5.75,2.39h-2.58a6,6,0,1,0,10.16-4.21Z"/><path class="cls-8" d="M322.32,138.13l-.26-2.56a6,6,0,0,0-5.34,5.92h2.58A3.37,3.37,0,0,1,322.32,138.13Z"/><path class="cls-5" d="M322.67,138.12a3.35,3.35,0,0,1,2.38,1l1.83-1.82a5.94,5.94,0,0,0-4.21-1.75,6,6,0,0,0-.61,0l.26,2.56Z"/><path class="cls-7" d="M339,144.88a3.37,3.37,0,0,1-3.37-3.37H333a6,6,0,0,0,10.16,4.21l-1.83-1.83A3.36,3.36,0,0,1,339,144.88Z"/><path class="cls-8" d="M343.18,137.3a5.93,5.93,0,0,0-4.21-1.74h0v2.58h0a3.37,3.37,0,0,1,2.38,5.75l1.83,1.83a6,6,0,0,0,0-8.42Z"/><path class="cls-5" d="M338.36,135.59a6,6,0,0,0-2.37.76,6,6,0,0,0-3,5.16h2.58a3.36,3.36,0,0,1,3-3.35,2.06,2.06,0,0,1,.35,0v-2.58A6.08,6.08,0,0,0,338.36,135.59Z"/><path class="cls-7" d="M359.48,145.72c.14-.15.28-.3.41-.46a5.88,5.88,0,0,0,1.13-2.21,6,6,0,0,0,.09-2.67,5.87,5.87,0,0,0-1.63-3.08l-4.21,4.21Z"/><path class="cls-8" d="M355.27,147.46v-11.9a6,6,0,1,0,0,11.9Z"/><path class="cls-9" d="M355.27,147.46a5.94,5.94,0,0,0,4.21-1.74l-4.21-4.21Z"/><path class="cls-10" d="M359.48,137.3a5.94,5.94,0,0,0-4.21-1.74v5.95Z"/><path class="cls-8" d="M375.78,137.3a5.93,5.93,0,0,0-4.21-1.74v5.95h-5.95a6,6,0,1,0,10.16-4.21Z"/><path class="cls-9" d="M367.36,137.3a6.14,6.14,0,0,0-.72.88,5.85,5.85,0,0,0-1,3.33h5.95Z"/><path class="cls-5" d="M371.57,135.56a6.08,6.08,0,0,0-.61,0,5.86,5.86,0,0,0-2.36.76,6.09,6.09,0,0,0-1.24,1l4.21,4.21Z"/><rect class="cls-5" x="316.72" y="117.56" width="18.87" height="2.2"/><rect class="cls-9" x="335.59" y="117.56" width="9.25" height="2.2"/><rect class="cls-5" x="316.72" y="122.38" width="14.59" height="2.2"/><rect class="cls-9" x="331.3" y="122.38" width="13.53" height="2.2"/><rect class="cls-5" x="316.72" y="127.19" width="8.12" height="2.2"/><rect class="cls-9" x="324.84" y="127.19" width="20" height="2.2"/><rect class="cls-5" x="349.4" y="127.19" width="18.87" height="2.2"/><rect class="cls-9" x="368.27" y="127.19" width="9.25" height="2.2"/><rect class="cls-5" x="349.4" y="122.38" width="14.59" height="2.2"/><rect class="cls-9" x="363.99" y="122.38" width="13.53" height="2.2"/><rect class="cls-5" x="349.4" y="117.56" width="8.12" height="2.2"/><rect class="cls-9" x="357.52" y="117.56" width="20" height="2.2"/><rect class="cls-11" x="316.72" y="81.33" width="14.8" height="19.18"/><path class="cls-12" d="M324.21,95.79c3.55,0,4.7-2.4,4.7-4a10.64,10.64,0,0,0-.91-3.58h-7.57a10.64,10.64,0,0,0-.91,3.58C319.52,93.39,320.66,95.79,324.21,95.79Z"/><path class="cls-12" d="M322.48,94.71h3.46a3.57,3.57,0,0,1,3.57,3.57v2.23a0,0,0,0,1,0,0h-10.6a0,0,0,0,1,0,0V98.28A3.57,3.57,0,0,1,322.48,94.71Z"/><path class="cls-9" d="M324.21,96.24h0l1.51-1.51V90.09h-3v4.64Z"/><path class="cls-12" d="M324.21,83.24c-3.34,0-4.42,2.27-4.42,3.75a10,10,0,0,0,.86,3.36h7.13a10,10,0,0,0,.86-3.36C328.64,85.51,327.56,83.24,324.21,83.24Z"/><path class="cls-12" d="M322.7,92.53V93.8a4.23,4.23,0,0,0,3-1.27Z"/><circle class="cls-9" cx="324.21" cy="89.59" r="3.57"/><path class="cls-9" d="M325.59,91.41H322.4a1.76,1.76,0,0,1-1.76-1.75V87.84a3.59,3.59,0,0,1,3.57-3.57h0a3.59,3.59,0,0,1,3.58,3.57v1.37A2.21,2.21,0,0,1,325.59,91.41Z"/><path class="cls-9" d="M319.37,89.59a1.2,1.2,0,1,0,2.39,0,1.2,1.2,0,0,0-2.39,0Z"/><path class="cls-9" d="M326.67,89.59a1.2,1.2,0,1,0,1.19-1.19A1.19,1.19,0,0,0,326.67,89.59Z"/><path class="cls-12" d="M324.21,82.85c-4.88,0-4.41,4.29-4.41,4.29l8.82.12S329.1,82.85,324.21,82.85Z"/><line class="cls-11" x1="335.59" y1="81.33" x2="377.52" y2="81.33"/><line class="cls-11" x1="335.59" y1="85.13" x2="377.52" y2="85.13"/><line class="cls-11" x1="335.59" y1="88.93" x2="377.52" y2="88.93"/><line class="cls-11" x1="335.59" y1="92.72" x2="377.52" y2="92.72"/><line class="cls-11" x1="335.59" y1="96.52" x2="377.52" y2="96.52"/><line class="cls-11" x1="316.72" y1="104.11" x2="377.52" y2="104.11"/><line class="cls-11" x1="316.72" y1="107.91" x2="377.33" y2="107.91"/><line class="cls-11" x1="316.72" y1="111.7" x2="377.33" y2="111.7"/><line class="cls-11" x1="316.72" y1="153.41" x2="377.52" y2="153.41"/><line class="cls-11" x1="316.72" y1="157.21" x2="377.33" y2="157.21"/><line class="cls-11" x1="316.72" y1="161" x2="377.33" y2="161"/><rect class="cls-6" x="392.38" y="71.04" width="74.28" height="99.45"/><path class="cls-7" d="M407.45,139.1a3.37,3.37,0,1,1-5.75,2.39h-2.58a6,6,0,1,0,10.16-4.21Z"/><path class="cls-8" d="M404.72,138.13l-.26-2.56a6,6,0,0,0-5.34,5.92h2.58A3.38,3.38,0,0,1,404.72,138.13Z"/><path class="cls-5" d="M405.07,138.12a3.35,3.35,0,0,1,2.38,1l1.83-1.82a5.92,5.92,0,0,0-4.21-1.75,6,6,0,0,0-.61,0l.26,2.56Z"/><path class="cls-7" d="M421.37,144.88a3.37,3.37,0,0,1-3.37-3.37h-2.58a6,6,0,0,0,10.16,4.21l-1.82-1.83A3.38,3.38,0,0,1,421.37,144.88Z"/><path class="cls-8" d="M425.58,137.3a5.92,5.92,0,0,0-4.21-1.74h0v2.58h0a3.37,3.37,0,0,1,2.39,5.75l1.82,1.83a6,6,0,0,0,0-8.42Z"/><path class="cls-5" d="M420.76,135.59a6,6,0,0,0-5.34,5.92H418a3.37,3.37,0,0,1,3-3.35,2.06,2.06,0,0,1,.35,0v-2.58A6.08,6.08,0,0,0,420.76,135.59Z"/><path class="cls-7" d="M454,147.46c.21,0,.41,0,.62,0a6.13,6.13,0,0,0,2.36-.76,6,6,0,0,0,1.95-1.83,5.88,5.88,0,0,0,1-3.33H454Z"/><path class="cls-8" d="M449.76,145.72l4.21-4.21,4.21-4.21a6,6,0,0,0-8.42,0,6,6,0,0,0,0,8.42Z"/><path class="cls-9" d="M449.76,145.72a6,6,0,0,0,4.21,1.74v-6Z"/><path class="cls-10" d="M459.92,141.51a5.93,5.93,0,0,0-1.74-4.21L454,141.51Z"/><path class="cls-5" d="M437.67,147.46c.21,0,.41,0,.62,0a6.13,6.13,0,0,0,2.36-.76,6.72,6.72,0,0,0,1.23-.95l-4.21-4.21Z"/><rect class="cls-5" x="399.12" y="117.56" width="18.87" height="2.2"/><rect class="cls-9" x="417.99" y="117.56" width="9.25" height="2.2"/><rect class="cls-5" x="399.12" y="122.38" width="21.1" height="2.2"/><rect class="cls-9" x="420.22" y="122.38" width="7.02" height="2.2"/><rect class="cls-5" x="399.12" y="127.19" width="8.12" height="2.2"/><rect class="cls-9" x="407.24" y="127.19" width="20" height="2.2"/><rect class="cls-5" x="431.81" y="117.56" width="18.87" height="2.2"/><rect class="cls-9" x="450.68" y="117.56" width="9.25" height="2.2"/><rect class="cls-5" x="431.81" y="122.38" width="14.59" height="2.2"/><rect class="cls-9" x="446.39" y="122.38" width="13.53" height="2.2"/><rect class="cls-5" x="431.81" y="127.19" width="17.73" height="2.2"/><rect class="cls-9" x="449.54" y="127.19" width="10.39" height="2.2"/><path class="cls-8" d="M437.67,135.56a6,6,0,1,0,0,11.9v-6l4.21-4.21A5.92,5.92,0,0,0,437.67,135.56Z"/><path class="cls-9" d="M441.88,137.3l-4.21,4.21,4.21,4.21a5.53,5.53,0,0,0,.72-.88,6,6,0,0,0-.72-7.54Z"/><rect class="cls-11" x="399.12" y="81.33" width="14.8" height="19.18"/><path class="cls-12" d="M404.89,94.71h3.46a3.57,3.57,0,0,1,3.57,3.57v2.23a0,0,0,0,1,0,0h-10.6a0,0,0,0,1,0,0V98.28A3.57,3.57,0,0,1,404.89,94.71Z"/><path class="cls-9" d="M406.62,96.24h0l1.51-1.51V90.09h-3v4.64Z"/><path class="cls-12" d="M406.62,83.24c-3.35,0-4.43,2.27-4.43,3.75a10,10,0,0,0,.86,3.36h7.13A10,10,0,0,0,411,87C411,85.51,410,83.24,406.62,83.24Z"/><path class="cls-12" d="M405.11,92.53V93.8a4.23,4.23,0,0,0,3-1.27Z"/><circle class="cls-9" cx="406.62" cy="89.59" r="3.57"/><path class="cls-9" d="M408,91.41H404.8a1.75,1.75,0,0,1-1.75-1.75V87.84a3.58,3.58,0,0,1,3.57-3.57h0a3.59,3.59,0,0,1,3.57,3.57v1.37A2.21,2.21,0,0,1,408,91.41Z"/><path class="cls-9" d="M401.77,89.59A1.2,1.2,0,1,0,403,88.4,1.2,1.2,0,0,0,401.77,89.59Z"/><path class="cls-9" d="M409.07,89.59a1.2,1.2,0,1,0,1.19-1.19A1.19,1.19,0,0,0,409.07,89.59Z"/><path class="cls-12" d="M406.62,82.85c-4.88,0-4.41,4.29-4.41,4.29l8.82.12S411.5,82.85,406.62,82.85Z"/><rect class="cls-6" x="405.02" y="94.11" width="0.97" height="2.19" transform="translate(51.45 314.62) rotate(-45)"/><rect class="cls-6" x="406.65" y="94.72" width="2.19" height="0.97" transform="translate(52.12 316.23) rotate(-45)"/><rect class="cls-10" x="406.4" y="95.72" width="0.43" height="0.43" transform="translate(51.26 315.62) rotate(-45)"/><line class="cls-11" x1="417.99" y1="81.33" x2="459.92" y2="81.33"/><line class="cls-11" x1="417.99" y1="85.13" x2="459.92" y2="85.13"/><line class="cls-11" x1="417.99" y1="88.93" x2="459.92" y2="88.93"/><line class="cls-11" x1="417.99" y1="92.72" x2="459.92" y2="92.72"/><line class="cls-11" x1="417.99" y1="96.52" x2="459.92" y2="96.52"/><line class="cls-11" x1="399.12" y1="104.11" x2="459.92" y2="104.11"/><line class="cls-11" x1="399.12" y1="107.91" x2="459.73" y2="107.91"/><line class="cls-11" x1="399.12" y1="111.7" x2="459.73" y2="111.7"/><line class="cls-11" x1="399.12" y1="153.41" x2="459.92" y2="153.41"/><line class="cls-11" x1="399.12" y1="157.21" x2="459.73" y2="157.21"/><line class="cls-11" x1="399.12" y1="161" x2="459.73" y2="161"/><line class="cls-13" x1="258.04" y1="76.64" x2="289.31" y2="107.91"/><line class="cls-13" x1="289.31" y1="76.64" x2="258.04" y2="107.91"/></g><polyline class="cls-16" points="343.3 91.66 355.11 103.47 373.88 76.54"/><rect class="cls-17" x="185.18" y="89.72" width="96.95" height="128.05" rx="3.2"/><rect class="cls-6" x="189.27" y="94.33" width="88.77" height="118.84"/><path class="cls-14" d="M249.75,85.8h-9.16a6.94,6.94,0,1,0-13.87,0h-9.15a1.88,1.88,0,0,0-1.88,1.87v9.38h35.93V87.67A1.87,1.87,0,0,0,249.75,85.8Zm-16.09-2.73a2.73,2.73,0,1,1-2.73,2.73A2.73,2.73,0,0,1,233.66,83.07Z"/><path class="cls-7" d="M207.29,166.9a4,4,0,0,1,1.18,2.84,4,4,0,0,1-8.06,0h-3.08a7.11,7.11,0,1,0,12.14-5Z"/><path class="cls-8" d="M204,165.74l-.31-3.07a7.11,7.11,0,0,0-6.38,7.07h3.08A4,4,0,0,1,204,165.74Z"/><path class="cls-5" d="M204.44,165.72a4,4,0,0,1,2.85,1.18l2.18-2.19a7.13,7.13,0,0,0-5-2.08,5.85,5.85,0,0,0-.73,0l.31,3.07A3,3,0,0,1,204.44,165.72Z"/><path class="cls-7" d="M223.92,173.8a4,4,0,0,1-4-4h-3.08a7.11,7.11,0,0,0,12.14,5l-2.18-2.18A4,4,0,0,1,223.92,173.8Z"/><path class="cls-8" d="M229,164.74a7.09,7.09,0,0,0-5-2.08h0v3.08h0a4,4,0,0,1,2.85,6.88L229,174.8a7.12,7.12,0,0,0,0-10.06Z"/><path class="cls-5" d="M223.19,162.7a7,7,0,0,0-2.83.91,7.15,7.15,0,0,0-2.33,2.18,7,7,0,0,0-1.22,4h3.08a4,4,0,0,1,3.61-4l.42,0v-3.08A5.85,5.85,0,0,0,223.19,162.7Z"/><path class="cls-7" d="M243.4,162.66a6.12,6.12,0,0,0-.74,0,7,7,0,0,0-2.82.91,7.15,7.15,0,0,0-2.33,2.18,7,7,0,0,0-1.23,4h7.12Z"/><path class="cls-8" d="M248.43,164.74l-5,5-5,5a7.12,7.12,0,0,0,10.06,0,7.12,7.12,0,0,0,0-10.06Z"/><path class="cls-9" d="M248.43,164.74a7.09,7.09,0,0,0-5-2.08v7.11Z"/><path class="cls-10" d="M236.28,169.77a7.1,7.1,0,0,0,2.09,5l5-5Z"/><path class="cls-8" d="M267.9,164.74a7,7,0,0,0-5-2.08v7.11h-7.12a7.12,7.12,0,1,0,12.14-5Z"/><path class="cls-9" d="M257.85,164.74a7.35,7.35,0,0,0-.87,1,7,7,0,0,0-1.22,4h7.12Z"/><path class="cls-5" d="M262.88,162.66a6,6,0,0,0-.74,0,7.06,7.06,0,0,0-4.29,2l5,5Z"/><rect class="cls-5" x="197.33" y="184.15" width="22.55" height="2.63"/><rect class="cls-9" x="219.88" y="184.15" width="11.05" height="2.63"/><rect class="cls-5" x="197.33" y="189.9" width="17.43" height="2.63"/><rect class="cls-9" x="214.76" y="189.9" width="16.17" height="2.63"/><rect class="cls-5" x="197.33" y="195.65" width="9.71" height="2.63"/><rect class="cls-9" x="207.03" y="195.65" width="23.9" height="2.63"/><rect class="cls-5" x="236.39" y="184.15" width="22.55" height="2.63"/><rect class="cls-9" x="258.94" y="184.15" width="11.05" height="2.63"/><rect class="cls-5" x="236.39" y="189.9" width="17.43" height="2.63"/><rect class="cls-9" x="253.82" y="189.9" width="16.17" height="2.63"/><rect class="cls-5" x="236.39" y="195.65" width="9.71" height="2.63"/><rect class="cls-9" x="246.09" y="195.65" width="23.9" height="2.63"/><rect class="cls-11" x="197.33" y="106.63" width="17.69" height="22.92"/><path class="cls-12" d="M208.7,125h-4.83a5,5,0,0,0-4.94,4.55h14.71A5,5,0,0,0,208.7,125Z"/><path class="cls-9" d="M206.29,127.12h0l2.1-2.11v-6.47h-4.21V125C205,125.84,205.46,126.3,206.29,127.12Z"/><path class="cls-12" d="M206.29,109c-4.67,0-6.18,3.17-6.18,5.23a14,14,0,0,0,1.2,4.7h9.95a14,14,0,0,0,1.2-4.7C212.46,112.15,211,109,206.29,109Z"/><path class="cls-12" d="M204.18,122v1.77c3-.23,4.21-1.77,4.21-1.77Z"/><path class="cls-9" d="M201.3,117.85a5,5,0,1,0,5-5A5,5,0,0,0,201.3,117.85Z"/><path class="cls-9" d="M208.2,120.38h-4.45a2.45,2.45,0,0,1-2.45-2.44V115.4a5,5,0,0,1,5-5h0a5,5,0,0,1,5,5v1.91A3.08,3.08,0,0,1,208.2,120.38Z"/><path class="cls-9" d="M199.53,117.85a1.67,1.67,0,1,0,1.67-1.67A1.67,1.67,0,0,0,199.53,117.85Z"/><path class="cls-9" d="M209.71,117.85a1.67,1.67,0,1,0,1.67-1.67A1.67,1.67,0,0,0,209.71,117.85Z"/><path class="cls-12" d="M200.13,114.43s3,1.12,6.16-2.58c1.82,3.19,6.15,2.74,6.15,2.74s.66-6.16-6.15-6.16S200.13,114.43,200.13,114.43Z"/><line class="cls-11" x1="219.88" y1="106.63" x2="269.99" y2="106.63"/><line class="cls-11" x1="219.88" y1="111.16" x2="269.99" y2="111.16"/><line class="cls-11" x1="219.88" y1="115.7" x2="269.99" y2="115.7"/><line class="cls-11" x1="219.88" y1="120.23" x2="269.99" y2="120.23"/><line class="cls-11" x1="219.88" y1="124.77" x2="269.99" y2="124.77"/><line class="cls-11" x1="197.33" y1="133.84" x2="269.99" y2="133.84"/><line class="cls-11" x1="197.33" y1="138.38" x2="269.76" y2="138.38"/><line class="cls-11" x1="197.33" y1="142.92" x2="269.76" y2="142.92"/><line class="cls-11" x1="197.33" y1="147.45" x2="269.76" y2="147.45"/><line class="cls-11" x1="197.33" y1="151.99" x2="269.76" y2="151.99"/><line class="cls-11" x1="197.33" y1="156.53" x2="269.76" y2="156.53"/><polyline class="cls-16" points="232.43 115.35 241.71 124.63 256.45 103.47"/><path class="cls-7" d="M134,166.61h.9A1.09,1.09,0,0,1,136,167.7V169a0,0,0,0,1,0,0h-3.07a0,0,0,0,1,0,0V167.7a1.09,1.09,0,0,1,1.09-1.09Z" transform="matrix(0.82, -0.57, 0.57, 0.82, -71.7, 106.65)"/><polygon class="cls-7" points="177.28 231.14 178.82 230.07 174.96 222.3 171.34 224.81 177.28 231.14"/><polygon class="cls-7" points="155.13 192.6 150.45 195.86 169.68 222.51 173.38 219.94 155.13 192.6"/><polygon class="cls-14" points="169.68 222.51 171.34 224.81 174.96 222.3 173.38 219.94 169.68 222.51"/><polygon class="cls-14" points="153.37 189.96 148.59 193.27 150.45 195.86 155.13 192.6 153.37 189.96"/><path class="cls-7" d="M138.91,168.31a1.69,1.69,0,0,0-2.37-.45l-2.77,1.93a1.69,1.69,0,0,0-.41,2.38l15.23,21.1,4.78-3.31Z"/><path class="cls-7" d="M179.74,233h0a.41.41,0,0,1-.53-.07l-1.73-2,1.14-.79,1.24,2.31A.42.42,0,0,1,179.74,233Z"/><rect class="cls-7" x="132.82" y="172.44" width="1.07" height="1.07" transform="translate(-74.84 106.95) rotate(-34.77)"/><rect class="cls-7" x="139.18" y="170.79" width="1.07" height="26.42" transform="translate(-79.99 112.54) rotate(-34.77)"/><path class="cls-7" d="M148.56,193.94a1.07,1.07,0,0,1-.27,1.48,1.07,1.07,0,0,1-1.22-1.75A1.06,1.06,0,0,1,148.56,193.94Z"/><path class="cls-9" d="M148.16,168.2h0a3.36,3.36,0,0,0,3.35-3.35v-2a3.36,3.36,0,0,0-3.35-3.35h0a3.35,3.35,0,0,0-3.34,3.35v2A3.35,3.35,0,0,0,148.16,168.2Z"/><rect class="cls-9" x="146.38" y="166.42" width="3.57" height="3.57"/><path class="cls-9" d="M154.19,171.18c-1.81-1.78-3.36-1.87-5.81-1.78-2.45-.09-3.86-.23-5.68,1.55-3,3-1.1,24.38-1.1,24.38h13.57S157.16,174.15,154.19,171.18Z"/><path class="cls-18" d="M149.68,231.19s5.24-2.19,5.67-1.63c.15.19-3,2.21-4.14,2.93a1,1,0,0,1-.85.11h0a1,1,0,0,1-.71-1.06Z"/><path class="cls-18" d="M132.29,224.67s1.88,2.61,1.4,3.16c-.21.23-4.09-4.05-4.09-4.05l.9-.87Z"/><path class="cls-9" d="M158.58,183.25c1.7,11.78,2.69,15.85,2.69,15.85l-2.5-.55s-3.41-9.28-6.45-21.3l.34-6.34S156.8,170.87,158.58,183.25Z"/><path class="cls-12" d="M149.52,195.24c.09-.43.13-.68.13-.68l-8.08.3a156.68,156.68,0,0,1-2.23,15.71c-1.35,6-8.84,12.34-8.84,12.34l1.76,2.42s6.3-4.5,9.88-9.4c2.49-3.4,4.42-9,5.7-13.67l1.88,29h.87a2.68,2.68,0,0,0,2.68-2.53l1.9-33.4Z"/><path class="cls-9" d="M160.94,197.9c2.59,2.64,2,6.31,1.39,5.3a26.71,26.71,0,0,0-2-2.49s1.11,1.59.21,1.27-1.81-3.43-1.81-3.43Z"/><path class="cls-12" d="M148.16,159.24a3,3,0,0,0-3,1.54c-1.12,1.89-1.12,4-.52,4.86s.35,2.27,3.23,2.24,3.3-1.71,3.38-2.61a5.32,5.32,0,0,0,0-.81,5.45,5.45,0,0,1,.29-2.12,1.1,1.1,0,0,0,.06-.26C151.65,161.6,151.12,159.35,148.16,159.24Z"/><path class="cls-19" d="M157.29,175.12c-2.11-5.27-5.39-5.49-5.39-5.49v-1.07c-3-1.91-7.08-.36-7.08-.36v1.16L140.64,185s-.17,11.22-.23,11.36c7,3.18,15.41,0,15.41,0v-6.12s1.11,2.92,1.14,3c2.3,0,3-1.3,3-1.3S159.4,180.4,157.29,175.12Z"/><path class="cls-12" d="M147.92,168.77s-4.43-.78-7.62,4c-2.93,4.41-2.92,6.09-3.93,14-.24,1.94,2,2.92,3.9,2.4.54-.15.18-3.85.18-3.85h0L140,195a28.11,28.11,0,0,0,16.3,0l-.26-3.45,2.42,7.14,3.19-.86s-2.12-13-2.89-18.63S155.35,168.77,147.92,168.77Z"/><path class="cls-9" d="M426.93,174.24h0a3.35,3.35,0,0,0,3.35-3.34v-2a3.36,3.36,0,0,0-3.35-3.35h0a3.36,3.36,0,0,0-3.35,3.35v2A3.35,3.35,0,0,0,426.93,174.24Z"/><rect class="cls-9" x="425.14" y="172.91" width="3.57" height="3.57"/><path class="cls-18" d="M421.39,231.69s-3.22.54-3.26,1.28c0,.31,5.84,0,5.84,0l0-1.28Z"/><path class="cls-9" d="M426.93,201.64h-7s.38,9.57.66,16.52.52,13.58.52,13.58l2.8-.05s2.4-21.36,3-30.05Z"/><path class="cls-18" d="M432.46,231.69s3.23.54,3.27,1.28c0,.31-5.85,0-5.85,0l0-1.28Z"/><path class="cls-9" d="M426.93,201.64h6.95s-.38,9.57-.65,16.52-.52,13.58-.52,13.58l-2.8-.05s-2.4-21.36-3-30.05Z"/><path class="cls-9" d="M436,172.71a23.52,23.52,0,0,1-2.08,9.1s-3.56.81-1.7-9.64a125,125,0,0,0,2-15.69l1.89,1.38S436.29,164.06,436,172.71Z"/><path class="cls-9" d="M436.05,157.86c.45-3.67-1.44-6.09-1.79-5.08a8.56,8.56,0,0,0,0,3.18s-.09-1.94-.61-1.14.44,3.3.44,3.3Z"/><path class="cls-6" d="M420,179.14a7,7,0,0,1,2.85-2.38,7.9,7.9,0,0,1,8.21,0,6.92,6.92,0,0,1,2.85,2.38c.55,1.19-.66,7.36-.82,12.55,1,2.95.82,9.95.82,9.95H420a44.55,44.55,0,0,1,1.33-10.82C421.19,186.15,419.5,180.18,420,179.14Z"/><path class="cls-9" d="M417.9,188.25a23.56,23.56,0,0,1,2.07-9.11s3.56-.81,1.7,9.64a127.44,127.44,0,0,0-2,15.69l-1.89-1.37S417.55,196.89,417.9,188.25Z"/><path class="cls-9" d="M417.79,203.1c-.44,3.67,2.15,6.26,2,5.07A19.52,19.52,0,0,1,420,205s-.26,1.94.27,1.14-.44-3.31-.44-3.31Z"/><path class="cls-12" d="M423,170.11a6.53,6.53,0,0,0,5-3.92,6.21,6.21,0,0,0,3.12,3.7s-.89-4.78-4.32-4.78S423,170.11,423,170.11Z"/><path class="cls-9" d="M430.5,169.33a.8.8,0,0,0-.84.61l.17,1.75C431.65,171.47,431.24,169.33,430.5,169.33Z"/><path class="cls-9" d="M423.54,169.33a.8.8,0,0,1,.85.61l-.17,1.75C422.4,171.47,422.81,169.33,423.54,169.33Z"/><path class="cls-6" d="M433.18,182.72a7.72,7.72,0,0,0,2.75-6.2l-4.74-1.81S430.33,179.87,433.18,182.72Z"/><path class="cls-12" d="M430.4,166.82a4.52,4.52,0,0,0-7.41.35,8.09,8.09,0,0,0-.78,1.74c-1.5,4.57,1.29,4.52-.44,6.7s.16,6.15,5.25,5.5,5.52-3.43,4.61-5.5C431,174.05,432.5,169.65,430.4,166.82Z"/><path class="cls-12" d="M432.86,192.91H420.81a142.51,142.51,0,0,0-.92,20.89,82.09,82.09,0,0,0,14.9,0S434.27,199,432.86,192.91Z"/><path class="cls-6" d="M420.68,178.23a7.58,7.58,0,0,0-2.94,6.2l4.73,1.81S423.52,181.08,420.68,178.23Z"/><rect class="cls-9" x="199.72" y="23.41" width="3.57" height="3.57" transform="translate(403.01 50.38) rotate(180)"/><path class="cls-9" d="M195.74,28.68c1.81-1.78,3.36-1.87,5.81-1.78,2.44-.09,3.86-.24,5.67,1.54,3,3,1.41,22.11,1.41,22.11H194.46S192.77,31.64,195.74,28.68Z"/><path class="cls-12" d="M199.72,25v1.27a4.23,4.23,0,0,0,3-1.27Z"/><path class="cls-9" d="M208.63,50.55s.3,15.42,0,23,0,15.7,0,15.7h-3.69s-2.76-24.39-3.39-33.93c-3.18,19.29-4.24,33.93-4.24,33.93h-3.67l.82-38.75Z"/><path class="cls-18" d="M208.61,88.59s2.12.53,2.16,1.27c0,.32-5.85,0-5.85,0l0-1.27Z"/><path class="cls-18" d="M197.36,88.59s2,.53,2.09,1.27c0,.32-5.85,0-5.85,0l0-1.27Z"/><path class="cls-9" d="M205.2,30.65,211,34.17l5.94,9.68,7.59-2,1.19,2.3s-5.92,2.79-8.62,3.16C213.62,47.77,202.78,38,205.2,30.65Z"/><path class="cls-9" d="M225.68,44.13c3.52,1.12,5.28-1,4.09-1.1a24.2,24.2,0,0,1-3.1-.63s1.92.28,1.23-.38S224,42,224,42Z"/><path class="cls-12" d="M194.44,51.52l14.33.62,1,36.17s-1.81.88-5.84.42c-.79-9-2.49-31.29-2.49-31.29l-3,31.24a14.25,14.25,0,0,1-5.56-.32C192.9,88.22,194.44,51.52,194.44,51.52Z"/><path class="cls-6" d="M203.29,26.85s.23,3.63-1.78,3.63-1.79-3.63-1.79-3.63-4.65-1.49-9.38,5.57a38.09,38.09,0,0,0,3.3,5.62L194,52.43a65.49,65.49,0,0,0,15.06,0c.17-1.8.32-15,.32-15l2.57-2S208.73,25,203.29,26.85Z"/><path class="cls-9" d="M205,20.41a.8.8,0,0,0-.84.61l.17,1.76C206.11,22.56,205.7,20.41,205,20.41Z"/><circle class="cls-3" cx="225.4" cy="21.84" r="17.99"/><path class="cls-9" d="M201.51,25.55h0c-2.62,0-3.35-1.86-3.35-3.71v-2a3.36,3.36,0,0,1,3.35-3.35h0a3.35,3.35,0,0,1,3.34,3.35v2C204.85,23.69,204.09,25.55,201.51,25.55Z"/><path class="cls-12" d="M200,16.53a3.69,3.69,0,0,1,3.27-.08,2.7,2.7,0,0,1,.93.77,4.9,4.9,0,0,1,.66,4.38c-.56-1.58-1-3-1-3a20.22,20.22,0,0,1-4.32,0,8.48,8.48,0,0,1-1.33,3.23s-.6-3.21.71-4.54A4.48,4.48,0,0,1,200,16.53Z"/><path class="cls-9" d="M198.05,20.41a.79.79,0,0,1,.84.61l-.17,1.76C196.91,22.56,197.31,20.41,198.05,20.41Z"/><path class="cls-20" d="M238,3.88a21.74,21.74,0,1,0,5.47,30.26A21.74,21.74,0,0,0,238,3.88ZM216.16,35.41a16.63,16.63,0,1,1,23.14-4.18A16.63,16.63,0,0,1,216.16,35.41Z"/><rect class="cls-20" x="207.47" y="38.28" width="4.7" height="12.53" transform="translate(62.83 -111.66) rotate(34.76)"/><path class="cls-14" d="M188.94,74.64h0A3.34,3.34,0,0,1,188.1,70l15.41-22.2L209,51.6,193.58,73.8A3.34,3.34,0,0,1,188.94,74.64Z"/><path class="cls-9" d="M208.32,52.85a25.31,25.31,0,0,1-3.17.26s1.93-.27,1.08-.71-3.31,2-3.31,2a4.74,4.74,0,0,0,4.71,0C208.88,53.72,209.08,52.71,208.32,52.85Z"/><path class="cls-9" d="M190.57,32.89s-7.75,13.32,12.35,21.53l1.93-1.31s-10-6.22-11.21-15.07"/><circle class="cls-21" cx="269.7" cy="159.7" r="16.63" transform="translate(105.85 426.9) rotate(-89.12)"/><path class="cls-12" d="M304.58,165.29a4.73,4.73,0,0,0-2.05.13,5.25,5.25,0,0,0-3.42,2.91c-1.4,3.06-.55,7.28-.55,7.28a17.13,17.13,0,0,1,5.11-.85c2.73,0,3.55-1.47,3.55-3.48S307.82,165.84,304.58,165.29Z"/><path class="cls-9" d="M297.94,177.62a12.42,12.42,0,0,0-5.46,9.63c-.4,4.95-.16,6.88,1.19,6.38s4.57-10.3,4.57-10.3Z"/><path class="cls-18" d="M297.27,231.82s-2.94.49-3,1.16c0,.28,5.32,0,5.32,0l0-1.16Z"/><path class="cls-18" d="M313.75,227.61s-2,2.2-1.62,2.75c.17.24,4.18-3.3,4.18-3.3l-.74-.89Z"/><rect class="cls-9" x="301.28" y="173.24" width="3.57" height="3.57"/><path class="cls-12" d="M301.27,174v1.27a4.23,4.23,0,0,0,3-1.27Z"/><path class="cls-9" d="M310.05,179.14a6.92,6.92,0,0,0-2.85-2.38,7.9,7.9,0,0,0-8.21,0,6.92,6.92,0,0,0-2.85,2.38c-.54,1.19.66,7.36.82,12.55a27.6,27.6,0,0,0-.82,7.54h13.91a32,32,0,0,0-1.33-8.41C308.84,186.15,310.52,180.18,310.05,179.14Z"/><path class="cls-9" d="M310.05,199.23H296.14s-.18,12,.09,18.94,0,13.86,0,13.86l3.35.43s2.51-22.22,3.09-30.91c0,0,.38,12,2.9,17s7.84,9.43,7.84,9.43l2.14-1.81s-6.23-6.65-6.85-12.26S310.05,199.23,310.05,199.23Z"/><path class="cls-6" d="M300.74,176a12.78,12.78,0,0,0,2.33,6.16c1.87-2.3,2.38-6.16,2.38-6.16a11.7,11.7,0,0,1,7.11,5.72,29.79,29.79,0,0,1-3.19,5.37l-.65,3.72a24,24,0,0,1-11.78.32c-.58-3-.66-3.72-.66-3.72a15.39,15.39,0,0,1-3-4.81C296,176.34,300.74,176,300.74,176Z"/><path class="cls-12" d="M296.94,191.14s-1-.15-1.36,11.27.5,26.34.5,26.34h4.26l2.57-25.51s-.06,10.26,2.35,15.81,4.93,7.12,4.93,7.12l3.24-3.14s-4.08-4.88-4.42-10.6,3.22-14.89-.2-22.1C303.54,191.92,296.94,191.14,296.94,191.14Z"/><path class="cls-20" d="M254.33,144.18a21.74,21.74,0,1,0,30.75,0A21.73,21.73,0,0,0,254.33,144.18Zm27.13,27.13a16.63,16.63,0,1,1,0-23.51A16.62,16.62,0,0,1,281.46,171.31Z"/><rect class="cls-20" x="286.97" y="172.92" width="4.7" height="12.53" transform="translate(-41.96 257.07) rotate(-45)"/><path class="cls-14" d="M315.22,205.08h0a3.33,3.33,0,0,1-4.71,0L291.4,186l4.72-4.71,19.1,19.1A3.33,3.33,0,0,1,315.22,205.08Z"/><path class="cls-9" d="M307.79,198.19c-2.64,2.58-4.31.89-3.3.25a8,8,0,0,0,1.64-1.35s-1.59,1.11-1.27.21,3.44-1.81,3.44-1.81Z"/><path class="cls-9" d="M312.23,182.41l-2.51,4.21L312,190l-3.69,5.54-.51,2.7s4-3.24,6.93-6.15C316.81,190,314,185.85,312.23,182.41Z"/><path class="cls-9" d="M301,182.05c-.35.17-.68.34-1,.5.11-.13.09-.25-.21-.32a2.51,2.51,0,0,0-1.48.51,9.26,9.26,0,0,0-2.88,2.83,26,26,0,0,0-2.52,4.58c-1.7,4.35,1.72,5,2.71,1.93s2.28-6.48,2.28-6.48C302.53,184.77,302.09,181.55,301,182.05Z"/><path class="cls-9" d="M302.33,174.58h0c1.84,0,4.08-1.51,4.08-3.35v-2a3.35,3.35,0,0,0-3.34-3.35h0a3.35,3.35,0,0,0-3.35,3.35v2C299.72,173.07,300.49,174.58,302.33,174.58Z"/><path class="cls-12" d="M303.71,166.85a10.23,10.23,0,0,1-4.6,3.57c.21-2.28,1.46-4.78,4.6-4.9,4.09,0,3.47,4.9,3.47,4.9A4,4,0,0,1,303.71,166.85Z"/><path class="cls-9" d="M306.7,170.09a.8.8,0,0,0-.85.61l.18,1.76C307.84,172.24,307.44,170.09,306.7,170.09Z"/></g></g></svg>